<svg xmlns="http://www.w3.org/2000/svg" viewBox="0 0 64 64" fill="none" shape-rendering="geometricPrecision">
  <rect width="64" height="64" rx="14" fill="#09090B"/>
  <path d="M18 52V28" stroke="#5C3B98" stroke-width="6" stroke-linecap="round"/>
  <path d="M18 14l6 8h-12l6-8Z" fill="#C69AF5"/>
  <path d="M22 20h22l6 9H16l6-9Z" fill="#A676E8"/>
  <path d="M16 31h32l-4 8H20l-4-8Z" fill="#8D5FDB"/>
  <path d="M16 39h32l-5 11H21l-5-11Z" fill="#B58CE9"/>
  <path d="M18 26h28" stroke="#FFD66A" stroke-width="4" stroke-linecap="round"/>
  <path d="M29 32l-3 9h12l-3-9h-6Z" fill="#FFF3DE"/>
  <path d="M25 30c3-3 11-3 14 0" stroke="#F7F0E4" stroke-width="6" stroke-linecap="round"/>
  <path d="M29 35h0.01M35 35h0.01" stroke="#F2A39B" stroke-width="3" stroke-linecap="round"/>
  <path d="M36 31c0 3 2 7 4 10 3 5 2 8-1 10" stroke="#F7F0E4" stroke-width="5" stroke-linecap="round"/>
  <path d="M44 43h7" stroke="#FFD66A" stroke-width="4" stroke-linecap="round"/>
  <path d="M49 43v6" stroke="#FFD66A" stroke-width="4" stroke-linecap="round"/>
  <path d="M19 14c7-6 19-6 26 0" stroke="#E2C4FF" stroke-width="3" stroke-linecap="round"/>
  <path d="M18 52h28" stroke="#FFD66A" stroke-width="4" stroke-linecap="round"/>
</svg>
